<svg width="24" height="25" viewBox="0 0 24 25" fill="none" xmlns="http://www.w3.org/2000/svg">
<g clip-path="url(#clip0_2802_940)">
<path d="M22.3832 6.15599C21.6198 6.49368 20.8102 6.71546 19.9812 6.81399C20.855 6.29142 21.509 5.469 21.8212 4.49999C21.0012 4.98799 20.1022 5.32999 19.1652 5.51499C18.5359 4.84157 17.7016 4.39495 16.7922 4.24457C15.8828 4.09419 14.9492 4.24848 14.1365 4.68344C13.3238 5.1184 12.6776 5.80967 12.2984 6.64978C11.9191 7.48989 11.828 8.43177 12.0392 9.32899C10.3764 9.24564 8.74958 8.81351 7.26453 8.06065C5.77949 7.30779 4.46937 6.25104 3.41924 4.95899C3.04753 5.59744 2.8522 6.32321 2.85324 7.06199C2.85324 8.51199 3.59124 9.79299 4.71324 10.543C4.04925 10.5221 3.39988 10.3428 2.81924 10.02V10.072C2.81944 11.0377 3.15361 11.9736 3.76509 12.721C4.37657 13.4685 5.22773 13.9815 6.17424 14.173C5.55786 14.34 4.91155 14.3646 4.28424 14.245C4.55111 15.0762 5.07125 15.8032 5.77184 16.3241C6.47242 16.845 7.31837 17.1338 8.19124 17.15C7.32372 17.8313 6.33042 18.335 5.26812 18.6322C4.20583 18.9293 3.09537 19.0142 2.00024 18.882C3.91194 20.1114 6.13734 20.7641 8.41024 20.762C16.1032 20.762 20.3102 14.389 20.3102 8.86199C20.3102 8.68199 20.3052 8.49999 20.2972 8.32199C21.1161 7.73016 21.8228 6.99701 22.3842 6.15699L22.3832 6.15599Z" fill="#607B96"/>
</g>
<defs>
<clipPath id="clip0_2802_940">
<rect width="24" height="24" fill="white" transform="translate(0 0.5)"/>
</clipPath>
</defs>
</svg>
